<?xml version="1.0" encoding="UTF-8" standalone="no"?>
<svg width="800" height="400" viewBox="0 0 800 400" xmlns="http://www.w3.org/2000/svg">
  <!-- Background -->
  <rect width="800" height="400" fill="#121826" />
  
  <!-- Map Grid -->
  <g stroke="#333" stroke-width="0.5">
    <path d="M0,40 L800,40" />
    <path d="M0,80 L800,80" />
    <path d="M0,120 L800,120" />
    <path d="M0,160 L800,160" />
    <path d="M0,200 L800,200" />
    <path d="M0,240 L800,240" />
    <path d="M0,280 L800,280" />
    <path d="M0,320 L800,320" />
    <path d="M0,360 L800,360" />
    <path d="M40,0 L40,400" />
    <path d="M80,0 L80,400" />
    <path d="M120,0 L120,400" />
    <path d="M160,0 L160,400" />
    <path d="M200,0 L200,400" />
    <path d="M240,0 L240,400" />
    <path d="M280,0 L280,400" />
    <path d="M320,0 L320,400" />
    <path d="M360,0 L360,400" />
    <path d="M400,0 L400,400" />
    <path d="M440,0 L440,400" />
    <path d="M480,0 L480,400" />
    <path d="M520,0 L520,400" />
    <path d="M560,0 L560,400" />
    <path d="M600,0 L600,400" />
    <path d="M640,0 L640,400" />
    <path d="M680,0 L680,400" />
    <path d="M720,0 L720,400" />
    <path d="M760,0 L760,400" />
  </g>
  
  <!-- Main Roads -->
  <g stroke="#4B5563" stroke-width="3">
    <!-- Horizontal Roads -->
    <path d="M80,80 L720,80" />
    <path d="M40,160 L760,160" />
    <path d="M120,240 L680,240" />
    <path d="M80,320 L720,320" />
    
    <!-- Vertical Roads -->
    <path d="M160,40 L160,360" />
    <path d="M320,40 L320,360" />
    <path d="M400,40 L400,360" />
    <path d="M560,40 L560,360" />
    <path d="M640,40 L640,360" />
  </g>
  
  <!-- Secondary Roads -->
  <g stroke="#2D3748" stroke-width="1.5">
    <path d="M120,40 L120,360" />
    <path d="M200,40 L200,360" />
    <path d="M240,40 L240,360" />
    <path d="M280,40 L280,360" />
    <path d="M360,40 L360,360" />
    <path d="M440,40 L440,360" />
    <path d="M480,40 L480,360" />
    <path d="M520,40 L520,360" />
    <path d="M600,40 L600,360" />
    <path d="M680,40 L680,360" />
    
    <path d="M40,120 L760,120" />
    <path d="M40,200 L760,200" />
    <path d="M40,280 L760,280" />
  </g>
  
  <!-- City Center - Connaught Place (Rajiv Chowk) -->
  <circle cx="400" cy="200" r="15" fill="#EF4444" opacity="0.3" />
  <circle cx="400" cy="200" r="8" fill="#EF4444" />
  
  <!-- Major Landmarks -->
  <!-- India Gate -->
  <circle cx="480" cy="230" r="6" fill="#F59E0B" />
  
  <!-- Red Fort -->
  <circle cx="380" cy="150" r="6" fill="#10B981" />
  
  <!-- Lotus Temple -->
  <circle cx="520" cy="270" r="6" fill="#8B5CF6" />
  
  <!-- Airport -->
  <circle cx="280" cy="120" r="6" fill="#3B82F6" />
  
  <!-- Qutub Minar -->
  <circle cx="350" cy="320" r="6" fill="#6366F1" />
  
  <!-- Lit Areas -->
  <g fill="#FBBF24" opacity="0.05">
    <circle cx="400" cy="200" r="40" /> <!-- City center -->
    <circle cx="380" cy="150" r="30" /> <!-- Red Fort area -->
    <circle cx="480" cy="230" r="25" /> <!-- India Gate area -->
    <circle cx="280" cy="120" r="35" /> <!-- Airport area -->
    <circle cx="520" cy="270" r="20" /> <!-- Lotus Temple area -->
    <circle cx="350" cy="320" r="20" /> <!-- Qutub Minar area -->
  </g>
  
  <!-- Low Safety Areas -->
  <g fill="#EF4444" opacity="0.1">
    <circle cx="200" cy="260" r="25" />
    <circle cx="600" cy="180" r="30" />
    <circle cx="320" cy="350" r="20" />
    <circle cx="180" cy="120" r="15" />
    <circle cx="650" cy="280" r="25" />
  </g>
  
  <!-- Poor Lighting Areas -->
  <g fill="#F59E0B" opacity="0.1">
    <circle cx="220" cy="200" r="40" />
    <circle cx="550" cy="320" r="30" />
    <circle cx="480" cy="120" r="25" />
    <circle cx="300" cy="280" r="20" />
    <circle cx="620" cy="100" r="35" />
  </g>

  <!-- Water Bodies (Yamuna River) -->
  <path d="M530,40 Q550,120 520,200 Q500,280 550,360" stroke="#1E40AF" stroke-width="8" fill="none" opacity="0.3" />
  
  <!-- Routes -->
  <!-- Safe Route -->
  <path d="M380,150 Q400,180 400,200 Q400,220 480,230" stroke="#10B981" stroke-width="3" fill="none" stroke-dasharray="0" />
  
  <!-- Unsafe Route -->
  <path d="M380,150 Q300,160 300,200 Q300,250 480,230" stroke="#EF4444" stroke-width="2" fill="none" stroke-dasharray="5,5" />
</svg>